<?xml version="1.0" standalone="no"?>
<!DOCTYPE svg PUBLIC "-//W3C//DTD SVG 20010904//EN"
 "http://www.w3.org/TR/2001/REC-SVG-20010904/DTD/svg10.dtd">
<svg version="1.0" xmlns="http://www.w3.org/2000/svg"
 width="260.000000pt" height="260.000000pt" viewBox="0 0 260.000000 260.000000"
 preserveAspectRatio="xMidYMid meet">
<metadata>
Created by potrace 1.14, written by Peter Selinger 2001-2017
</metadata>
<g transform="translate(0.000000,260.000000) scale(0.100000,-0.100000)"
fill="#000000" stroke="none">
<path d="M0 1300 l0 -1300 1300 0 1300 0 0 1300 0 1300 -1300 0 -1300 0 0
-1300z m1565 1180 c102 -23 170 -48 269 -99 70 -37 78 -41 131 -76 98 -64 271
-227 260 -245 -4 -6 -1 -9 5 -8 16 4 100 -119 149 -217 51 -104 97 -248 112
-354 23 -161 -1 -455 -45 -555 -7 -17 -22 -53 -31 -81 -48 -135 -236 -408
-268 -388 -6 3 -7 2 -4 -4 17 -26 -194 -184 -335 -251 -170 -80 -294 -106
-508 -106 -279 0 -452 52 -679 202 -123 81 -295 257 -284 290 3 7 -1 11 -9 10
-7 -2 -12 3 -10 10 1 6 -3 11 -9 10 -5 -2 -22 17 -35 42 -14 25 -34 60 -45 78
-11 19 -16 38 -13 44 5 7 2 8 -6 3 -10 -6 -12 -3 -8 13 3 12 2 20 -4 19 -13
-3 -56 111 -81 218 -16 72 -21 123 -21 255 -1 259 33 390 164 630 65 118 284
349 332 350 9 0 20 5 24 12 5 7 2 9 -7 4 -8 -4 0 4 16 18 17 14 35 26 41 26 6
0 23 9 38 21 71 56 289 130 436 149 103 14 323 3 425 -20z"/>
<path d="M713 1682 c-74 -27 -130 -69 -161 -121 -22 -38 -27 -58 -27 -117 0
-147 83 -215 310 -255 155 -27 201 -47 221 -95 31 -73 -8 -148 -94 -181 -101
-38 -274 -10 -382 62 -29 19 -54 35 -56 35 -2 0 -4 -34 -4 -76 l0 -75 43 -19
c84 -37 175 -52 292 -48 95 3 119 8 173 32 67 31 125 86 148 142 18 42 18 145
0 187 -16 39 -73 91 -124 113 -20 9 -93 27 -162 40 -69 14 -139 29 -157 35
-83 27 -110 127 -53 193 40 45 86 60 180 60 83 -1 157 -21 237 -65 29 -16 55
-29 58 -29 3 0 5 32 3 72 l-3 72 -75 24 c-104 34 -291 41 -367 14z"/>
<path d="M1362 1358 c4 -304 5 -326 26 -378 30 -76 73 -124 140 -157 52 -26
66 -28 172 -28 133 0 180 16 245 80 81 82 95 156 95 533 l0 272 -59 0 -59 0
-4 -312 c-3 -271 -6 -318 -21 -353 -39 -87 -91 -119 -197 -119 -100 -1 -153
27 -189 99 l-26 49 -3 318 -3 318 -61 0 -60 0 4 -322z"/>
</g>
</svg>
